<svg xmlns="http://www.w3.org/2000/svg" style="display:none">
<!-- === Telefon (mobil) === -->
 <symbol id="icon-mobile" viewBox="0 0 24 24">
  <g fill="none" stroke="currentColor" stroke-width="1.8" stroke-linecap="round" stroke-linejoin="round">
    <rect x="6.8" y="2.5" width="10.4" height="19" rx="2.2"/>
    <path d="M10 4h4"/>     <!-- hoparlör -->
    <path d="M10.5 18.5h3"/> 
  </g>
</symbol>



  <!-- Telefon (ahize) -->
  <symbol id="icon-phone" viewBox="0 0 24 24">
    <path d="M6.62 10.79a15.05 15.05 0 006.59 6.59l2.2-2.2a1 1 0 011.01-.24 11.36 11.36 0 003.56.57 1 1 0 011 1V20a1 1 0 01-1 1A17 17 0 013 5a1 1 0 011-1h3.5a1 1 0 011 1 11.36 11.36 0 00.57 3.56 1 1 0 01-.24 1.01l-2.2 2.2z"/>
  </symbol>

  <!-- E-posta -->
  <symbol id="icon-mail" viewBox="0 0 24 24">
    <path d="M20 4H4a2 2 0 00-2 2v12a2 2 0 002 2h16a2 2 0 002-2V6a2 2 0 00-2-2zm-1.4 3L12 11.25 5.4 7h13.2z"/>
  </symbol>

 <!-- === Web (küre) === -->
  <symbol id="icon-web" viewBox="0 0 24 24">
    <g fill="none" stroke="currentColor" stroke-width="1.8" stroke-linecap="round" stroke-linejoin="round">
      <circle cx="12" cy="12" r="9"/>
      <path d="M3 12h18"/>
      <path d="M12 3a15 15 0 0 0 0 18"/>
      <path d="M12 3a15 15 0 0 1 0 18"/>
      <path d="M4.5 7.5h15"/>
      <path d="M4.5 16.5h15"/>
    </g>
  </symbol>


  <!-- Şirket / bina -->
  <symbol id="icon-company" viewBox="0 0 24 24">
  <g fill="none" stroke="currentColor" stroke-width="1.9" stroke-linecap="round" stroke-linejoin="round">
    <path d="M4 21h16"/>
    <rect x="8" y="4" width="8" height="17" rx="1"/>
    <path d="M10 8h4M10 11h4M10 14h4M10 17h4"/>
  </g>
</symbol>

  <!-- Adres / pin -->
  <symbol id="icon-location" viewBox="0 0 24 24">
    <path d="M12 2a7 7 0 00-7 7c0 5.25 7 13 7 13s7-7.75 7-13a7 7 0 00-7-7zm0 9.5a2.5 2.5 0 110-5 2.5 2.5 0 010 5z"/>
  </symbol>

<symbol id="icon-tax-office" viewBox="0 0 24 24">
  <g fill="none" stroke="currentColor" stroke-width="1.9" stroke-linecap="round" stroke-linejoin="round">
    <!-- Çatı -->
    <path d="M12 3L21 8H3L12 3Z"/>
    <!-- Saçak -->
    <path d="M4 9.5H20"/>
    <!-- Sütunlar -->
    <path d="M6 10.5V17.5M10 10.5V17.5M14 10.5V17.5M18 10.5V17.5"/>
    <!-- Alt taban -->
    <rect x="4" y="18" width="16" height="2" rx="1"/>
  </g>
</symbol>


<!-- Vergi No / kart -->
<symbol id="icon-tax-no" viewBox="0 0 24 24">
  <path fill="currentColor"
        d="M3 4h18a2 2 0 012 2v12a2 2 0 01-2 2H3a2 2 0 01-2-2V6a2 2 0 012-2zm0 4h18V6H3v2zm6 4H5v2h4v-2zm10 0h-8v2h8v-2z"/>
</symbol>



  <!-- QR -->
  <symbol id="icon-qr" viewBox="0 0 24 24">
    <path d="M3 3h8v8H3V3zm2 2v4h4V5H5zm6-2h8v8h-8V3zm2 2v4h4V5h-4zM3 13h8v8H3v-8zm2 2v4h4v-4H5zm10 0h2v2h-2v-2zm-2 4h2v2h-2v-2zm4 0h4v4h-4v-4zm0-4h4v2h-4v-2z"/>
  </symbol>

<!-- WhatsApp -->
<symbol id="icon-whatsapp" viewBox="0 0 24 24">
  <path d="M17.472 14.382c-.297-.148-1.758-.867-2.03-.967-.273-.099-.472-.148-.672.149-.198.296-.77.967-.944 1.166-.173.198-.347.223-.643.074-.297-.148-1.255-.462-2.39-1.475-.883-.788-1.48-1.761-1.653-2.057-.173-.296-.018-.456.13-.604.134-.133.297-.347.446-.52.148-.173.198-.297.297-.495.099-.198.05-.371-.025-.52-.074-.148-.672-1.62-.92-2.214-.242-.58-.487-.5-.672-.51l-.573-.01c-.198 0-.52.074-.792.372s-1.04 1.017-1.04 2.48 1.065 2.876 1.213 3.074c.148.198 2.095 3.2 5.076 4.487.71.306 1.263.489 1.694.627.712.227 1.36.195 1.872.118.571-.085 1.758-.718 2.007-1.411.248-.694.248-1.289.173-1.411-.074-.123-.272-.198-.57-.347zM12.004 2.002c-5.514 0-9.998 4.484-9.998 9.998 0 1.763.461 3.416 1.266 4.844L2 22l5.28-1.244a9.948 9.948 0 0 0 4.724 1.2c5.514 0 9.998-4.484 9.998-9.998S17.518 2.002 12.004 2.002z"/>
</symbol>

</svg>


