<svg xmlns="http://www.w3.org/2000/svg" style="display:none">
<!-- === Telefon (mobil) === -->
 <symbol id="icon-mobile" viewBox="0 0 24 24">
  <g fill="none" stroke="currentColor" stroke-width="1.8" stroke-linecap="round" stroke-linejoin="round">
    <rect x="6.8" y="2.5" width="10.4" height="19" rx="2.2"/>
    <path d="M10 4h4"/>     <!-- hoparlör -->
    <path d="M10.5 18.5h3"/> 
  </g>
</symbol>



  <!-- Telefon (ahize) -->
  <symbol id="icon-phone" viewBox="0 0 24 24">
    <path d="M6.62 10.79a15.05 15.05 0 006.59 6.59l2.2-2.2a1 1 0 011.01-.24 11.36 11.36 0 003.56.57 1 1 0 011 1V20a1 1 0 01-1 1A17 17 0 013 5a1 1 0 011-1h3.5a1 1 0 011 1 11.36 11.36 0 00.57 3.56 1 1 0 01-.24 1.01l-2.2 2.2z"/>
  </symbol>

  <!-- E-posta -->
  <symbol id="icon-mail" viewBox="0 0 24 24">
    <path d="M20 4H4a2 2 0 00-2 2v12a2 2 0 002 2h16a2 2 0 002-2V6a2 2 0 00-2-2zm-1.4 3L12 11.25 5.4 7h13.2z"/>
  </symbol>

 <!-- === Web (küre) === -->
  <symbol id="icon-web" viewBox="0 0 24 24">
    <g fill="none" stroke="currentColor" stroke-width="1.8" stroke-linecap="round" stroke-linejoin="round">
      <circle cx="12" cy="12" r="9"/>
      <path d="M3 12h18"/>
      <path d="M12 3a15 15 0 0 0 0 18"/>
      <path d="M12 3a15 15 0 0 1 0 18"/>
      <path d="M4.5 7.5h15"/>
      <path d="M4.5 16.5h15"/>
    </g>
  </symbol>


  <!-- Şirket / bina -->
  <symbol id="icon-company" viewBox="0 0 24 24">
  <g fill="none" stroke="currentColor" stroke-width="1.9" stroke-linecap="round" stroke-linejoin="round">
    <path d="M4 21h16"/>
    <rect x="8" y="4" width="8" height="17" rx="1"/>
    <path d="M10 8h4M10 11h4M10 14h4M10 17h4"/>
  </g>
</symbol>

  <!-- Adres / pin -->
  <symbol id="icon-location" viewBox="0 0 24 24">
    <path d="M12 2a7 7 0 00-7 7c0 5.25 7 13 7 13s7-7.75 7-13a7 7 0 00-7-7zm0 9.5a2.5 2.5 0 110-5 2.5 2.5 0 010 5z"/>
  </symbol>

<symbol id="icon-tax-office" viewBox="0 0 24 24">
  <g fill="none" stroke="currentColor" stroke-width="1.9" stroke-linecap="round" stroke-linejoin="round">
    <!-- Çatı -->
    <path d="M12 3L21 8H3L12 3Z"/>
    <!-- Saçak -->
    <path d="M4 9.5H20"/>
    <!-- Sütunlar -->
    <path d="M6 10.5V17.5M10 10.5V17.5M14 10.5V17.5M18 10.5V17.5"/>
    <!-- Alt taban -->
    <rect x="4" y="18" width="16" height="2" rx="1"/>
  </g>
</symbol>


<!-- Vergi No / kart -->
<symbol id="icon-tax-no" viewBox="0 0 24 24">
  <path fill="currentColor"
        d="M3 4h18a2 2 0 012 2v12a2 2 0 01-2 2H3a2 2 0 01-2-2V6a2 2 0 012-2zm0 4h18V6H3v2zm6 4H5v2h4v-2zm10 0h-8v2h8v-2z"/>
</symbol>



  <!-- QR -->
  <symbol id="icon-qr" viewBox="0 0 24 24">
    <path d="M3 3h8v8H3V3zm2 2v4h4V5H5zm6-2h8v8h-8V3zm2 2v4h4V5h-4zM3 13h8v8H3v-8zm2 2v4h4v-4H5zm10 0h2v2h-2v-2zm-2 4h2v2h-2v-2zm4 0h4v4h-4v-4zm0-4h4v2h-4v-2z"/>
  </symbol>

<!-- WhatsApp -->
<symbol id="icon-whatsapp" viewBox="0 0 32 32">
  <path d="M16 .5C7.44.5.5 7.44.5 16c0 2.81.73 5.49 2.1 7.89L.5 31.5l7.92-2.05A15.44 15.44 0 0 0 16 31.5c8.56 0 15.5-6.94 15.5-15.5S24.56.5 16 .5zM16 28c-2.6 0-5.15-.69-7.38-2l-.53-.31-4.7 1.21 1.25-4.58-.34-.55A12.01 12.01 0 1 1 28 16c0 6.63-5.37 12-12 12zm6.62-8.72c-.36-.18-2.11-1.04-2.44-1.16-.33-.12-.57-.18-.81.18-.24.36-.93 1.16-1.14 1.4-.21.24-.42.27-.78.09-.36-.18-1.52-.56-2.89-1.79a10.65 10.65 0 0 1-1.97-2.43c-.21-.36-.02-.55.16-.73.16-.16.36-.42.54-.63.18-.21.24-.36.36-.6.12-.24.06-.45-.03-.63-.09-.18-.81-1.94-1.11-2.66-.29-.7-.59-.6-.81-.61l-.69-.01c-.24 0-.63.09-.96.45-.33.36-1.26 1.23-1.26 3 0 1.77 1.29 3.48 1.47 3.72.18.24 2.54 3.88 6.16 5.44.86.37 1.53.59 2.05.75.86.27 1.64.23 2.26.14.69-.1 2.11-.86 2.41-1.7.3-.84.3-1.55.21-1.7-.09-.15-.33-.24-.69-.42z" fill="currentColor"/>
</symbol>


</svg>


