<!-- /assets/icons.svg -->
<svg xmlns="http://www.w3.org/2000/svg" style="display:none">
  <!-- Telefon (mobil) -->
  <symbol id="icon-mobile" viewBox="0 0 24 24">
    <path d="M17 2H7a2 2 0 00-2 2v16a2 2 0 002 2h10a2 2 0 002-2V4a2 2 0 00-2-2zm-5 19a1.5 1.5 0 110-3 1.5 1.5 0 010 3z"/>
  </symbol>

  <!-- Telefon (ahize) -->
  <symbol id="icon-phone" viewBox="0 0 24 24">
    <path d="M6.62 10.79a15.05 15.05 0 006.59 6.59l2.2-2.2a1 1 0 011.01-.24 11.36 11.36 0 003.56.57 1 1 0 011 1V20a1 1 0 01-1 1A17 17 0 013 5a1 1 0 011-1h3.5a1 1 0 011 1 11.36 11.36 0 00.57 3.56 1 1 0 01-.24 1.01l-2.2 2.2z"/>
  </symbol>

  <!-- E-posta -->
  <symbol id="icon-mail" viewBox="0 0 24 24">
    <path d="M20 4H4a2 2 0 00-2 2v12a2 2 0 002 2h16a2 2 0 002-2V6a2 2 0 00-2-2zm-1.4 3L12 11.25 5.4 7h13.2z"/>
  </symbol>

  <!-- Web -->
  <symbol id="icon-web" viewBox="0 0 24 24">
    <path d="M12 2a10 10 0 100 20 10 10 0 000-20zm1 5h5v2h-3v8h-2V7zM7 9h4v2H9v6H7V9z"/>
  </symbol>

  <!-- Şirket / bina -->
  <symbol id="icon-company" viewBox="0 0 24 24">
    <path d="M3 22h18v-2H3v2zm2-4h2V6H5v12zm4 0h2V2H9v16zm4 0h2V8h-2v10zm4 0h2v-6h-2v6z"/>
  </symbol>

  <!-- Adres / pin -->
  <symbol id="icon-location" viewBox="0 0 24 24">
    <path d="M12 2a7 7 0 00-7 7c0 5.25 7 13 7 13s7-7.75 7-13a7 7 0 00-7-7zm0 9.5a2.5 2.5 0 110-5 2.5 2.5 0 010 5z"/>
  </symbol>

<symbol id="icon-tax-office" viewBox="0 0 24 24">
  <g fill="none" stroke="currentColor" stroke-width="1.9" stroke-linecap="round" stroke-linejoin="round">
    <!-- Çatı -->
    <path d="M12 3L21 8H3L12 3Z"/>
    <!-- Saçak -->
    <path d="M4 9.5H20"/>
    <!-- Sütunlar -->
    <path d="M6 10.5V17.5M10 10.5V17.5M14 10.5V17.5M18 10.5V17.5"/>
    <!-- Alt taban -->
    <rect x="4" y="18" width="16" height="2" rx="1"/>
  </g>
</symbol>


<!-- Vergi No / kart -->
<symbol id="icon-tax-no" viewBox="0 0 24 24">
  <path fill="currentColor"
        d="M3 4h18a2 2 0 012 2v12a2 2 0 01-2 2H3a2 2 0 01-2-2V6a2 2 0 012-2zm0 4h18V6H3v2zm6 4H5v2h4v-2zm10 0h-8v2h8v-2z"/>
</symbol>



  <!-- QR -->
  <symbol id="icon-qr" viewBox="0 0 24 24">
    <path d="M3 3h8v8H3V3zm2 2v4h4V5H5zm6-2h8v8h-8V3zm2 2v4h4V5h-4zM3 13h8v8H3v-8zm2 2v4h4v-4H5zm10 0h2v2h-2v-2zm-2 4h2v2h-2v-2zm4 0h4v4h-4v-4zm0-4h4v2h-4v-2z"/>
  </symbol>
</svg>
